<?xml version="1.0" encoding="UTF-8"?>
<svg width="1200pt" height="1200pt" version="1.1" viewBox="0 0 1200 1200" xmlns="http://www.w3.org/2000/svg">
 <path d="m1111.2 404.4c-15.602 1.1992-31.199 4.8008-45.602 10.801-14.398 10.801-26.398 24-36 38.398-6 8.3984-38.398 36-42 51.602-8.3984 34.801-26.398 57.602-55.199 96-36 49.199-102 63.602-109.2 67.199-7.1992 3.6016-24 15.602-24 15.602v-6c-2.3984 1.1992-4.8008 3.6016-8.3984 4.8008-4.8008 1.1992-9.6016 2.3984-14.398 2.3984v-4.8008l-21.602 12v-4.8008l-7.1992 6 1.1992-7.1992c-9.6016 0-13.199 9.6016 0 21.602 6 6 0 12 1.1992 14.398 1.1992 2.3984 37.199 84 40.801 87.602 7.1992 3.6016 14.398 4.8008 21.602 6 4.8008 0 9.6016 0 14.398-1.1992 7.1992-2.3984 15.602-1.1992 19.199 4.8008-4.8008-3.6016-14.398 1.1992-14.398 1.1992s15.602-1.1992 15.602 10.801c-3.6016-3.6016-7.1992-4.8008-12-3.6016 0 0-1.1992 2.3984-4.8008 2.3984-3.6016 0-49.199-1.1992-60-3.6016 3.6016 4.8008 8.3984 7.1992 14.398 8.3984 9.6016 1.1992 20.398 1.1992 30-2.3984 7.1992-2.3984 14.398 0 18 7.1992 0 0-3.6016-3.6016-12 0 9.6016-2.3984 20.398 4.8008 18 10.801-3.6016-3.6016-8.3984-3.6016-13.199-2.3984-1.1992 1.1992-2.3984 2.3984-3.6016 2.3984-2.3984 1.1992-9.6016 0-20.398 0-10.801 0-68.398-2.3984-75.602-2.3984-7.1992 0-7.1992-1.1992-9.6016-6-6 1.1992-12 2.3984-18 3.6016 3.6016-6 9.6016-10.801 16.801-10.801 0 0 27.602-2.3984 31.199-2.3984 2.3984 0 3.6016-1.1992 4.8008-3.6016h-16.801c-2.3984 0-6 1.1992-15.602 2.3984 3.6016-4.8008 9.6016-7.1992 15.602-7.1992 4.8008-1.1992 10.801-2.3984 15.602-3.6016 1.1992-1.1992 0-4.8008 0-4.8008s-14.398-43.199-24-64.801c-9.6016-21.602-14.398-38.398-16.801-46.801-2.3984-8.3984-10.801-9.6016-7.1992-14.398 3.6016-4.8008 4.8008-18 2.3984-19.199-2.3984-1.1992-4.8008-2.3984-7.1992-2.3984 0 0 2.3984-2.3984 0-4.8008-2.3984-1.1992-4.8008-2.3984-7.1992-2.3984 1.1992-2.3984 0-4.8008-1.1992-6-3.6016-1.1992-7.1992-2.3984-10.801-1.1992 0 0 4.8008-3.6016 2.3984-4.8008-2.3984-1.1992-6-2.3984-9.6016-2.3984 0 0 2.3984-2.3984 0-3.6016-1.1992-1.1992-3.6016-1.1992-6-1.1992 0-1.1992 0-3.6016-1.1992-4.8008-13.199-10.801-25.199-21.602-36-33.602-21.602-24-88.801-52.801-88.801-52.801-7.1992 1.1992-14.398 1.1992-21.602 1.1992-4.8008 0-9.6016-1.1992-14.398-2.3984 0 0-49.199 0-64.801-1.1992-7.1992 0-13.199-1.1992-19.199-3.6016-13.199 2.3984-25.199 2.3984-38.398 2.3984-7.1992 0-14.398-2.3984-20.398-4.8008 0 0-30 1.1992-38.398 2.3984-6 0-10.801-1.1992-16.801-3.6016h-33.602c-8.3984 0-9.6016-6-9.6016-6s-24 3.6016-34.801 4.8008c-6 0-12-2.3984-16.801-6-3.6016 0-6 0-9.6016 1.1992-3.6016 1.1992-7.1992 0-8.3984-2.3984l-108 3.6016c-8.3984 1.1992-18-2.3984-22.801-9.6016-4.8008-4.8008 4.8008-14.398 10.801-14.398s379.2 2.3984 422.4 9.6016c21.602-6 44.398-8.3984 67.199-7.1992 33.602-14.398 87.602-31.199 162-54 57.602-16.801 130.8-31.199 142.8-38.398 21.602-13.199 42-28.801 61.199-44.398 13.199-10.801 27.602-19.199 43.199-25.199 20.398-9.6016 40.801-3.6016 54-2.3984 13.199 1.1992 33.602 18 38.398 20.398 6 3.6016 12 6 19.199 7.1992s40.801 0 57.602 20.398c-9.5938 2.4023-19.191 4.8008-28.793 6zm-372 344.4c1.1992 3.6016 20.398 60 22.801 66 2.3984 6 4.8008 2.3984 8.3984-2.3984 3.6016-4.8008-3.6016-15.602-6-22.801-2.3984-7.1992-25.199-54-25.199-54s-3.6016 0-3.6016 2.3984c0.003906 2.3984 1.2031 7.1992 3.6016 10.801zm28.801-228c22.801 12 48 19.199 74.398 20.398 18-1.1992 36-3.6016 54-7.1992 0 0 8.3984 13.199-21.602 24-75.602 26.398-135.6 2.3984-140.4 3.6016-12 2.3984-48 21.602-55.199 43.199-4.8008 15.602 7.1992 30 28.801 46.801 24 16.801 54 22.801 82.801 16.801 26.398-4.8008 96-27.602 108-45.602 9.6016-34.801 15.602-69.602 16.801-105.6 0-32.398-4.8008-30-42-39.602-37.203-9.5977-133.2 10.801-166.8 14.402l14.398 7.1992c2.3984 1.1992 12 3.6016 12 3.6016s-1.1992 1.1992 1.1992 2.3984c2.3984 1.1992 10.801 3.6016 10.801 3.6016s-1.1992 0 2.3984 2.3984c1.1992 1.1992 8.3984 3.6016 8.3984 3.6016s0 1.1992 2.3984 2.3984c2.3984 1.1992 4.8008 1.1992 7.1992 2.3984 0.007812-1.1992-1.1953 0.003906 2.4062 1.2031zm265.2-129.6c-2.3984-3.6016-7.1992-4.8008-10.801-2.3984-3.6016 2.3984-4.8008 7.1992-2.3984 10.801 2.3984 3.6016 7.1992 4.8008 10.801 2.3984 3.5977-2.3984 4.8008-7.1992 2.3984-10.801z"/>
</svg>
